# Tiled2Unity generated file. Do not modify by hand.
# Wavefront file for 'shop_mesh_0002.obj'

# Vertices (Count = 20)
v -848 -784 0
v -864 -784 0
v -864 -768 0
v -848 -768 0
v -720 -784 0
v -736 -784 0
v -736 -768 0
v -720 -768 0
v -864 -832 0
v -880 -832 0
v -880 -816 0
v -864 -816 0
v -784 -864 0
v -800 -864 0
v -800 -848 0
v -784 -848 0
v -864 -896 0
v -880 -896 0
v -880 -880 0
v -864 -880 0

# Texture cooridinates (Count = 12)
vt 0.2985537 0.7110266
vt 0.3150826 0.7110266
vt 0.3150826 0.7414448
vt 0.2985537 0.7414448
vt 0.4741735 0.904943
vt 0.4907025 0.904943
vt 0.4907025 0.9353612
vt 0.4741735 0.9353612
vt 0.2458678 0.7110266
vt 0.2623967 0.7110266
vt 0.2623967 0.7414448
vt 0.2458678 0.7414448

# Normal
vn 0 0 -1

# Mesh description
g shop_mesh_0002

# Faces
f 1/1/1 2/2/1 3/3/1 4/4/1
f 5/1/1 6/2/1 7/3/1 8/4/1
f 9/5/1 10/6/1 11/7/1 12/8/1
f 13/9/1 14/10/1 15/11/1 16/12/1
f 17/5/1 18/6/1 19/7/1 20/8/1

