# Tiled2Unity generated file. Do not modify by hand.
# Wavefront file for 'shop_mesh_0001.obj'

# Vertices (Count = 748)
v -880 -768 0
v -896 -768 0
v -896 -752 0
v -880 -752 0
v -864 -768 0
v -880 -768 0
v -880 -752 0
v -864 -752 0
v -848 -768 0
v -864 -768 0
v -864 -752 0
v -848 -752 0
v -832 -768 0
v -848 -768 0
v -848 -752 0
v -832 -752 0
v -816 -768 0
v -832 -768 0
v -832 -752 0
v -816 -752 0
v -800 -768 0
v -816 -768 0
v -816 -752 0
v -800 -752 0
v -784 -768 0
v -800 -768 0
v -800 -752 0
v -784 -752 0
v -768 -768 0
v -784 -768 0
v -784 -752 0
v -768 -752 0
v -752 -768 0
v -768 -768 0
v -768 -752 0
v -752 -752 0
v -736 -768 0
v -752 -768 0
v -752 -752 0
v -736 -752 0
v -720 -768 0
v -736 -768 0
v -736 -752 0
v -720 -752 0
v -704 -768 0
v -720 -768 0
v -720 -752 0
v -704 -752 0
v -688 -768 0
v -704 -768 0
v -704 -752 0
v -688 -752 0
v -880 -784 0
v -896 -784 0
v -896 -768 0
v -880 -768 0
v -864 -784 0
v -880 -784 0
v -880 -768 0
v -864 -768 0
v -848 -784 0
v -864 -784 0
v -864 -768 0
v -848 -768 0
v -832 -784 0
v -848 -784 0
v -848 -768 0
v -832 -768 0
v -816 -784 0
v -832 -784 0
v -832 -768 0
v -816 -768 0
v -800 -784 0
v -816 -784 0
v -816 -768 0
v -800 -768 0
v -784 -784 0
v -800 -784 0
v -800 -768 0
v -784 -768 0
v -768 -784 0
v -784 -784 0
v -784 -768 0
v -768 -768 0
v -752 -784 0
v -768 -784 0
v -768 -768 0
v -752 -768 0
v -736 -784 0
v -752 -784 0
v -752 -768 0
v -736 -768 0
v -720 -784 0
v -736 -784 0
v -736 -768 0
v -720 -768 0
v -704 -784 0
v -720 -784 0
v -720 -768 0
v -704 -768 0
v -688 -784 0
v -704 -784 0
v -704 -768 0
v -688 -768 0
v -880 -800 0
v -896 -800 0
v -896 -784 0
v -880 -784 0
v -864 -800 0
v -880 -800 0
v -880 -784 0
v -864 -784 0
v -848 -800 0
v -864 -800 0
v -864 -784 0
v -848 -784 0
v -832 -800 0
v -848 -800 0
v -848 -784 0
v -832 -784 0
v -816 -800 0
v -832 -800 0
v -832 -784 0
v -816 -784 0
v -800 -800 0
v -816 -800 0
v -816 -784 0
v -800 -784 0
v -784 -800 0
v -800 -800 0
v -800 -784 0
v -784 -784 0
v -768 -800 0
v -784 -800 0
v -784 -784 0
v -768 -784 0
v -752 -800 0
v -768 -800 0
v -768 -784 0
v -752 -784 0
v -736 -800 0
v -752 -800 0
v -752 -784 0
v -736 -784 0
v -720 -800 0
v -736 -800 0
v -736 -784 0
v -720 -784 0
v -704 -800 0
v -720 -800 0
v -720 -784 0
v -704 -784 0
v -688 -800 0
v -704 -800 0
v -704 -784 0
v -688 -784 0
v -880 -816 0
v -896 -816 0
v -896 -800 0
v -880 -800 0
v -864 -816 0
v -880 -816 0
v -880 -800 0
v -864 -800 0
v -848 -816 0
v -864 -816 0
v -864 -800 0
v -848 -800 0
v -832 -816 0
v -848 -816 0
v -848 -800 0
v -832 -800 0
v -816 -816 0
v -832 -816 0
v -832 -800 0
v -816 -800 0
v -800 -816 0
v -816 -816 0
v -816 -800 0
v -800 -800 0
v -784 -816 0
v -800 -816 0
v -800 -800 0
v -784 -800 0
v -768 -816 0
v -784 -816 0
v -784 -800 0
v -768 -800 0
v -752 -816 0
v -768 -816 0
v -768 -800 0
v -752 -800 0
v -736 -816 0
v -752 -816 0
v -752 -800 0
v -736 -800 0
v -720 -816 0
v -736 -816 0
v -736 -800 0
v -720 -800 0
v -704 -816 0
v -720 -816 0
v -720 -800 0
v -704 -800 0
v -688 -816 0
v -704 -816 0
v -704 -800 0
v -688 -800 0
v -880 -832 0
v -896 -832 0
v -896 -816 0
v -880 -816 0
v -864 -832 0
v -880 -832 0
v -880 -816 0
v -864 -816 0
v -848 -832 0
v -864 -832 0
v -864 -816 0
v -848 -816 0
v -832 -832 0
v -848 -832 0
v -848 -816 0
v -832 -816 0
v -816 -832 0
v -832 -832 0
v -832 -816 0
v -816 -816 0
v -800 -832 0
v -816 -832 0
v -816 -816 0
v -800 -816 0
v -784 -832 0
v -800 -832 0
v -800 -816 0
v -784 -816 0
v -768 -832 0
v -784 -832 0
v -784 -816 0
v -768 -816 0
v -752 -832 0
v -768 -832 0
v -768 -816 0
v -752 -816 0
v -736 -832 0
v -752 -832 0
v -752 -816 0
v -736 -816 0
v -720 -832 0
v -736 -832 0
v -736 -816 0
v -720 -816 0
v -704 -832 0
v -720 -832 0
v -720 -816 0
v -704 -816 0
v -688 -832 0
v -704 -832 0
v -704 -816 0
v -688 -816 0
v -672 -832 0
v -688 -832 0
v -688 -816 0
v -672 -816 0
v -656 -832 0
v -672 -832 0
v -672 -816 0
v -656 -816 0
v -640 -832 0
v -656 -832 0
v -656 -816 0
v -640 -816 0
v -880 -848 0
v -896 -848 0
v -896 -832 0
v -880 -832 0
v -864 -848 0
v -880 -848 0
v -880 -832 0
v -864 -832 0
v -848 -848 0
v -864 -848 0
v -864 -832 0
v -848 -832 0
v -832 -848 0
v -848 -848 0
v -848 -832 0
v -832 -832 0
v -816 -848 0
v -832 -848 0
v -832 -832 0
v -816 -832 0
v -800 -848 0
v -816 -848 0
v -816 -832 0
v -800 -832 0
v -784 -848 0
v -800 -848 0
v -800 -832 0
v -784 -832 0
v -768 -848 0
v -784 -848 0
v -784 -832 0
v -768 -832 0
v -752 -848 0
v -768 -848 0
v -768 -832 0
v -752 -832 0
v -736 -848 0
v -752 -848 0
v -752 -832 0
v -736 -832 0
v -720 -848 0
v -736 -848 0
v -736 -832 0
v -720 -832 0
v -704 -848 0
v -720 -848 0
v -720 -832 0
v -704 -832 0
v -688 -848 0
v -704 -848 0
v -704 -832 0
v -688 -832 0
v -672 -848 0
v -688 -848 0
v -688 -832 0
v -672 -832 0
v -656 -848 0
v -672 -848 0
v -672 -832 0
v -656 -832 0
v -640 -848 0
v -656 -848 0
v -656 -832 0
v -640 -832 0
v -624 -848 0
v -640 -848 0
v -640 -832 0
v -624 -832 0
v -880 -864 0
v -896 -864 0
v -896 -848 0
v -880 -848 0
v -864 -864 0
v -880 -864 0
v -880 -848 0
v -864 -848 0
v -848 -864 0
v -864 -864 0
v -864 -848 0
v -848 -848 0
v -832 -864 0
v -848 -864 0
v -848 -848 0
v -832 -848 0
v -816 -864 0
v -832 -864 0
v -832 -848 0
v -816 -848 0
v -800 -864 0
v -816 -864 0
v -816 -848 0
v -800 -848 0
v -784 -864 0
v -800 -864 0
v -800 -848 0
v -784 -848 0
v -768 -864 0
v -784 -864 0
v -784 -848 0
v -768 -848 0
v -752 -864 0
v -768 -864 0
v -768 -848 0
v -752 -848 0
v -736 -864 0
v -752 -864 0
v -752 -848 0
v -736 -848 0
v -720 -864 0
v -736 -864 0
v -736 -848 0
v -720 -848 0
v -704 -864 0
v -720 -864 0
v -720 -848 0
v -704 -848 0
v -688 -864 0
v -704 -864 0
v -704 -848 0
v -688 -848 0
v -672 -864 0
v -688 -864 0
v -688 -848 0
v -672 -848 0
v -656 -864 0
v -672 -864 0
v -672 -848 0
v -656 -848 0
v -640 -864 0
v -656 -864 0
v -656 -848 0
v -640 -848 0
v -624 -864 0
v -640 -864 0
v -640 -848 0
v -624 -848 0
v -880 -880 0
v -896 -880 0
v -896 -864 0
v -880 -864 0
v -864 -880 0
v -880 -880 0
v -880 -864 0
v -864 -864 0
v -848 -880 0
v -864 -880 0
v -864 -864 0
v -848 -864 0
v -832 -880 0
v -848 -880 0
v -848 -864 0
v -832 -864 0
v -816 -880 0
v -832 -880 0
v -832 -864 0
v -816 -864 0
v -800 -880 0
v -816 -880 0
v -816 -864 0
v -800 -864 0
v -784 -880 0
v -800 -880 0
v -800 -864 0
v -784 -864 0
v -768 -880 0
v -784 -880 0
v -784 -864 0
v -768 -864 0
v -752 -880 0
v -768 -880 0
v -768 -864 0
v -752 -864 0
v -736 -880 0
v -752 -880 0
v -752 -864 0
v -736 -864 0
v -720 -880 0
v -736 -880 0
v -736 -864 0
v -720 -864 0
v -704 -880 0
v -720 -880 0
v -720 -864 0
v -704 -864 0
v -688 -880 0
v -704 -880 0
v -704 -864 0
v -688 -864 0
v -672 -880 0
v -688 -880 0
v -688 -864 0
v -672 -864 0
v -656 -880 0
v -672 -880 0
v -672 -864 0
v -656 -864 0
v -640 -880 0
v -656 -880 0
v -656 -864 0
v -640 -864 0
v -624 -880 0
v -640 -880 0
v -640 -864 0
v -624 -864 0
v -880 -896 0
v -896 -896 0
v -896 -880 0
v -880 -880 0
v -864 -896 0
v -880 -896 0
v -880 -880 0
v -864 -880 0
v -848 -896 0
v -864 -896 0
v -864 -880 0
v -848 -880 0
v -832 -896 0
v -848 -896 0
v -848 -880 0
v -832 -880 0
v -816 -896 0
v -832 -896 0
v -832 -880 0
v -816 -880 0
v -800 -896 0
v -816 -896 0
v -816 -880 0
v -800 -880 0
v -784 -896 0
v -800 -896 0
v -800 -880 0
v -784 -880 0
v -768 -896 0
v -784 -896 0
v -784 -880 0
v -768 -880 0
v -752 -896 0
v -768 -896 0
v -768 -880 0
v -752 -880 0
v -736 -896 0
v -752 -896 0
v -752 -880 0
v -736 -880 0
v -720 -896 0
v -736 -896 0
v -736 -880 0
v -720 -880 0
v -704 -896 0
v -720 -896 0
v -720 -880 0
v -704 -880 0
v -688 -896 0
v -704 -896 0
v -704 -880 0
v -688 -880 0
v -672 -896 0
v -688 -896 0
v -688 -880 0
v -672 -880 0
v -656 -896 0
v -672 -896 0
v -672 -880 0
v -656 -880 0
v -640 -896 0
v -656 -896 0
v -656 -880 0
v -640 -880 0
v -880 -912 0
v -896 -912 0
v -896 -896 0
v -880 -896 0
v -864 -912 0
v -880 -912 0
v -880 -896 0
v -864 -896 0
v -848 -912 0
v -864 -912 0
v -864 -896 0
v -848 -896 0
v -832 -912 0
v -848 -912 0
v -848 -896 0
v -832 -896 0
v -816 -912 0
v -832 -912 0
v -832 -896 0
v -816 -896 0
v -800 -912 0
v -816 -912 0
v -816 -896 0
v -800 -896 0
v -784 -912 0
v -800 -912 0
v -800 -896 0
v -784 -896 0
v -768 -912 0
v -784 -912 0
v -784 -896 0
v -768 -896 0
v -752 -912 0
v -768 -912 0
v -768 -896 0
v -752 -896 0
v -736 -912 0
v -752 -912 0
v -752 -896 0
v -736 -896 0
v -720 -912 0
v -736 -912 0
v -736 -896 0
v -720 -896 0
v -704 -912 0
v -720 -912 0
v -720 -896 0
v -704 -896 0
v -688 -912 0
v -704 -912 0
v -704 -896 0
v -688 -896 0
v -880 -928 0
v -896 -928 0
v -896 -912 0
v -880 -912 0
v -864 -928 0
v -880 -928 0
v -880 -912 0
v -864 -912 0
v -848 -928 0
v -864 -928 0
v -864 -912 0
v -848 -912 0
v -832 -928 0
v -848 -928 0
v -848 -912 0
v -832 -912 0
v -816 -928 0
v -832 -928 0
v -832 -912 0
v -816 -912 0
v -800 -928 0
v -816 -928 0
v -816 -912 0
v -800 -912 0
v -784 -928 0
v -800 -928 0
v -800 -912 0
v -784 -912 0
v -768 -928 0
v -784 -928 0
v -784 -912 0
v -768 -912 0
v -752 -928 0
v -768 -928 0
v -768 -912 0
v -752 -912 0
v -736 -928 0
v -752 -928 0
v -752 -912 0
v -736 -912 0
v -720 -928 0
v -736 -928 0
v -736 -912 0
v -720 -912 0
v -704 -928 0
v -720 -928 0
v -720 -912 0
v -704 -912 0
v -688 -928 0
v -704 -928 0
v -704 -912 0
v -688 -912 0
v -880 -944 0
v -896 -944 0
v -896 -928 0
v -880 -928 0
v -864 -944 0
v -880 -944 0
v -880 -928 0
v -864 -928 0
v -848 -944 0
v -864 -944 0
v -864 -928 0
v -848 -928 0
v -832 -944 0
v -848 -944 0
v -848 -928 0
v -832 -928 0
v -816 -944 0
v -832 -944 0
v -832 -928 0
v -816 -928 0
v -800 -944 0
v -816 -944 0
v -816 -928 0
v -800 -928 0
v -784 -944 0
v -800 -944 0
v -800 -928 0
v -784 -928 0
v -768 -944 0
v -784 -944 0
v -784 -928 0
v -768 -928 0
v -752 -944 0
v -768 -944 0
v -768 -928 0
v -752 -928 0
v -736 -944 0
v -752 -944 0
v -752 -928 0
v -736 -928 0
v -720 -944 0
v -736 -944 0
v -736 -928 0
v -720 -928 0
v -704 -944 0
v -720 -944 0
v -720 -928 0
v -704 -928 0
v -688 -944 0
v -704 -944 0
v -704 -928 0
v -688 -928 0
v -880 -960 0
v -896 -960 0
v -896 -944 0
v -880 -944 0
v -864 -960 0
v -880 -960 0
v -880 -944 0
v -864 -944 0
v -848 -960 0
v -864 -960 0
v -864 -944 0
v -848 -944 0
v -832 -960 0
v -848 -960 0
v -848 -944 0
v -832 -944 0
v -816 -960 0
v -832 -960 0
v -832 -944 0
v -816 -944 0
v -800 -960 0
v -816 -960 0
v -816 -944 0
v -800 -944 0
v -784 -960 0
v -800 -960 0
v -800 -944 0
v -784 -944 0
v -768 -960 0
v -784 -960 0
v -784 -944 0
v -768 -944 0
v -752 -960 0
v -768 -960 0
v -768 -944 0
v -752 -944 0
v -736 -960 0
v -752 -960 0
v -752 -944 0
v -736 -944 0
v -720 -960 0
v -736 -960 0
v -736 -944 0
v -720 -944 0
v -704 -960 0
v -720 -960 0
v -720 -944 0
v -704 -944 0
v -688 -960 0
v -704 -960 0
v -704 -944 0
v -688 -944 0

# Texture cooridinates (Count = 56)
vt 0.5444215 0.5817491
vt 0.5609504 0.5817491
vt 0.5609504 0.6121673
vt 0.5444215 0.6121673
vt 0.4917355 0.5817491
vt 0.5082645 0.5817491
vt 0.5082645 0.6121673
vt 0.4917355 0.6121673
vt 0.5268595 0.5817491
vt 0.5433884 0.5817491
vt 0.5433884 0.6121673
vt 0.5268595 0.6121673
vt 0.5092975 0.5494297
vt 0.5258265 0.5494297
vt 0.5258265 0.5798479
vt 0.5092975 0.5798479
vt 0.5619835 0.4847909
vt 0.5785124 0.4847909
vt 0.5785124 0.5152091
vt 0.5619835 0.5152091
vt 0.4741735 0.4847909
vt 0.4907025 0.4847909
vt 0.4907025 0.5152091
vt 0.4741735 0.5152091
vt 0.1580579 0.9695817
vt 0.1745868 0.9695817
vt 0.1745868 1
vt 0.1580579 1
vt 0.5444215 0.5494297
vt 0.5609504 0.5494297
vt 0.5609504 0.5798479
vt 0.5444215 0.5798479
vt 0.08780992 0.9695817
vt 0.1043388 0.9695817
vt 0.1043388 1
vt 0.08780992 1
vt 0.5268595 0.5494297
vt 0.5433884 0.5494297
vt 0.5433884 0.5798479
vt 0.5268595 0.5798479
vt 0.5795454 0.4847909
vt 0.5960744 0.4847909
vt 0.5960744 0.5152091
vt 0.5795454 0.5152091
vt 0.5444215 0.4847909
vt 0.5609504 0.4847909
vt 0.5609504 0.5152091
vt 0.5444215 0.5152091
vt 0.5268595 0.4847909
vt 0.5433884 0.4847909
vt 0.5433884 0.5152091
vt 0.5268595 0.5152091
vt 0.4917355 0.4847909
vt 0.5082645 0.4847909
vt 0.5082645 0.5152091
vt 0.4917355 0.5152091

# Normal
vn 0 0 -1

# Mesh description
g shop_mesh_0001

# Faces
f 1/1/1 2/2/1 3/3/1 4/4/1
f 5/5/1 6/6/1 7/7/1 8/8/1
f 9/5/1 10/6/1 11/7/1 12/8/1
f 13/5/1 14/6/1 15/7/1 16/8/1
f 17/5/1 18/6/1 19/7/1 20/8/1
f 21/5/1 22/6/1 23/7/1 24/8/1
f 25/5/1 26/6/1 27/7/1 28/8/1
f 29/5/1 30/6/1 31/7/1 32/8/1
f 33/5/1 34/6/1 35/7/1 36/8/1
f 37/5/1 38/6/1 39/7/1 40/8/1
f 41/5/1 42/6/1 43/7/1 44/8/1
f 45/5/1 46/6/1 47/7/1 48/8/1
f 49/9/1 50/10/1 51/11/1 52/12/1
f 53/13/1 54/14/1 55/15/1 56/16/1
f 57/17/1 58/18/1 59/19/1 60/20/1
f 61/17/1 62/18/1 63/19/1 64/20/1
f 65/17/1 66/18/1 67/19/1 68/20/1
f 69/17/1 70/18/1 71/19/1 72/20/1
f 73/17/1 74/18/1 75/19/1 76/20/1
f 77/17/1 78/18/1 79/19/1 80/20/1
f 81/17/1 82/18/1 83/19/1 84/20/1
f 85/17/1 86/18/1 87/19/1 88/20/1
f 89/17/1 90/18/1 91/19/1 92/20/1
f 93/17/1 94/18/1 95/19/1 96/20/1
f 97/17/1 98/18/1 99/19/1 100/20/1
f 101/13/1 102/14/1 103/15/1 104/16/1
f 105/13/1 106/14/1 107/15/1 108/16/1
f 109/21/1 110/22/1 111/23/1 112/24/1
f 113/21/1 114/22/1 115/23/1 116/24/1
f 117/21/1 118/22/1 119/23/1 120/24/1
f 121/21/1 122/22/1 123/23/1 124/24/1
f 125/21/1 126/22/1 127/23/1 128/24/1
f 129/21/1 130/22/1 131/23/1 132/24/1
f 133/21/1 134/22/1 135/23/1 136/24/1
f 137/21/1 138/22/1 139/23/1 140/24/1
f 141/21/1 142/22/1 143/23/1 144/24/1
f 145/21/1 146/22/1 147/23/1 148/24/1
f 149/21/1 150/22/1 151/23/1 152/24/1
f 153/13/1 154/14/1 155/15/1 156/16/1
f 157/13/1 158/14/1 159/15/1 160/16/1
f 161/25/1 162/26/1 163/27/1 164/28/1
f 165/25/1 166/26/1 167/27/1 168/28/1
f 169/25/1 170/26/1 171/27/1 172/28/1
f 173/25/1 174/26/1 175/27/1 176/28/1
f 177/25/1 178/26/1 179/27/1 180/28/1
f 181/25/1 182/26/1 183/27/1 184/28/1
f 185/25/1 186/26/1 187/27/1 188/28/1
f 189/25/1 190/26/1 191/27/1 192/28/1
f 193/25/1 194/26/1 195/27/1 196/28/1
f 197/25/1 198/26/1 199/27/1 200/28/1
f 201/25/1 202/26/1 203/27/1 204/28/1
f 205/13/1 206/14/1 207/15/1 208/16/1
f 209/13/1 210/14/1 211/15/1 212/16/1
f 213/25/1 214/26/1 215/27/1 216/28/1
f 217/25/1 218/26/1 219/27/1 220/28/1
f 221/25/1 222/26/1 223/27/1 224/28/1
f 225/25/1 226/26/1 227/27/1 228/28/1
f 229/25/1 230/26/1 231/27/1 232/28/1
f 233/25/1 234/26/1 235/27/1 236/28/1
f 237/25/1 238/26/1 239/27/1 240/28/1
f 241/25/1 242/26/1 243/27/1 244/28/1
f 245/25/1 246/26/1 247/27/1 248/28/1
f 249/25/1 250/26/1 251/27/1 252/28/1
f 253/25/1 254/26/1 255/27/1 256/28/1
f 257/29/1 258/30/1 259/31/1 260/32/1
f 261/33/1 262/34/1 263/35/1 264/36/1
f 265/33/1 266/34/1 267/35/1 268/36/1
f 269/33/1 270/34/1 271/35/1 272/36/1
f 273/13/1 274/14/1 275/15/1 276/16/1
f 277/25/1 278/26/1 279/27/1 280/28/1
f 281/25/1 282/26/1 283/27/1 284/28/1
f 285/25/1 286/26/1 287/27/1 288/28/1
f 289/25/1 290/26/1 291/27/1 292/28/1
f 293/25/1 294/26/1 295/27/1 296/28/1
f 297/25/1 298/26/1 299/27/1 300/28/1
f 301/25/1 302/26/1 303/27/1 304/28/1
f 305/25/1 306/26/1 307/27/1 308/28/1
f 309/25/1 310/26/1 311/27/1 312/28/1
f 313/25/1 314/26/1 315/27/1 316/28/1
f 317/25/1 318/26/1 319/27/1 320/28/1
f 321/25/1 322/26/1 323/27/1 324/28/1
f 325/25/1 326/26/1 327/27/1 328/28/1
f 329/25/1 330/26/1 331/27/1 332/28/1
f 333/25/1 334/26/1 335/27/1 336/28/1
f 337/33/1 338/34/1 339/35/1 340/36/1
f 341/13/1 342/14/1 343/15/1 344/16/1
f 345/25/1 346/26/1 347/27/1 348/28/1
f 349/25/1 350/26/1 351/27/1 352/28/1
f 353/25/1 354/26/1 355/27/1 356/28/1
f 357/25/1 358/26/1 359/27/1 360/28/1
f 361/25/1 362/26/1 363/27/1 364/28/1
f 365/25/1 366/26/1 367/27/1 368/28/1
f 369/25/1 370/26/1 371/27/1 372/28/1
f 373/25/1 374/26/1 375/27/1 376/28/1
f 377/25/1 378/26/1 379/27/1 380/28/1
f 381/25/1 382/26/1 383/27/1 384/28/1
f 385/25/1 386/26/1 387/27/1 388/28/1
f 389/25/1 390/26/1 391/27/1 392/28/1
f 393/25/1 394/26/1 395/27/1 396/28/1
f 397/25/1 398/26/1 399/27/1 400/28/1
f 401/25/1 402/26/1 403/27/1 404/28/1
f 405/33/1 406/34/1 407/35/1 408/36/1
f 409/13/1 410/14/1 411/15/1 412/16/1
f 413/25/1 414/26/1 415/27/1 416/28/1
f 417/25/1 418/26/1 419/27/1 420/28/1
f 421/25/1 422/26/1 423/27/1 424/28/1
f 425/25/1 426/26/1 427/27/1 428/28/1
f 429/25/1 430/26/1 431/27/1 432/28/1
f 433/25/1 434/26/1 435/27/1 436/28/1
f 437/25/1 438/26/1 439/27/1 440/28/1
f 441/25/1 442/26/1 443/27/1 444/28/1
f 445/25/1 446/26/1 447/27/1 448/28/1
f 449/25/1 450/26/1 451/27/1 452/28/1
f 453/25/1 454/26/1 455/27/1 456/28/1
f 457/25/1 458/26/1 459/27/1 460/28/1
f 461/25/1 462/26/1 463/27/1 464/28/1
f 465/25/1 466/26/1 467/27/1 468/28/1
f 469/25/1 470/26/1 471/27/1 472/28/1
f 473/33/1 474/34/1 475/35/1 476/36/1
f 477/13/1 478/14/1 479/15/1 480/16/1
f 481/25/1 482/26/1 483/27/1 484/28/1
f 485/25/1 486/26/1 487/27/1 488/28/1
f 489/25/1 490/26/1 491/27/1 492/28/1
f 493/25/1 494/26/1 495/27/1 496/28/1
f 497/25/1 498/26/1 499/27/1 500/28/1
f 501/25/1 502/26/1 503/27/1 504/28/1
f 505/25/1 506/26/1 507/27/1 508/28/1
f 509/25/1 510/26/1 511/27/1 512/28/1
f 513/25/1 514/26/1 515/27/1 516/28/1
f 517/25/1 518/26/1 519/27/1 520/28/1
f 521/25/1 522/26/1 523/27/1 524/28/1
f 525/1/1 526/2/1 527/3/1 528/4/1
f 529/33/1 530/34/1 531/35/1 532/36/1
f 533/33/1 534/34/1 535/35/1 536/36/1
f 537/33/1 538/34/1 539/35/1 540/36/1
f 541/13/1 542/14/1 543/15/1 544/16/1
f 545/25/1 546/26/1 547/27/1 548/28/1
f 549/25/1 550/26/1 551/27/1 552/28/1
f 553/25/1 554/26/1 555/27/1 556/28/1
f 557/25/1 558/26/1 559/27/1 560/28/1
f 561/25/1 562/26/1 563/27/1 564/28/1
f 565/25/1 566/26/1 567/27/1 568/28/1
f 569/25/1 570/26/1 571/27/1 572/28/1
f 573/25/1 574/26/1 575/27/1 576/28/1
f 577/25/1 578/26/1 579/27/1 580/28/1
f 581/25/1 582/26/1 583/27/1 584/28/1
f 585/25/1 586/26/1 587/27/1 588/28/1
f 589/13/1 590/14/1 591/15/1 592/16/1
f 593/29/1 594/30/1 595/31/1 596/32/1
f 597/5/1 598/6/1 599/7/1 600/8/1
f 601/5/1 602/6/1 603/7/1 604/8/1
f 605/5/1 606/6/1 607/7/1 608/8/1
f 609/5/1 610/6/1 611/7/1 612/8/1
f 613/5/1 614/6/1 615/7/1 616/8/1
f 617/5/1 618/6/1 619/7/1 620/8/1
f 621/5/1 622/6/1 623/7/1 624/8/1
f 625/5/1 626/6/1 627/7/1 628/8/1
f 629/5/1 630/6/1 631/7/1 632/8/1
f 633/5/1 634/6/1 635/7/1 636/8/1
f 637/5/1 638/6/1 639/7/1 640/8/1
f 641/37/1 642/38/1 643/39/1 644/40/1
f 645/41/1 646/42/1 647/43/1 648/44/1
f 649/17/1 650/18/1 651/19/1 652/20/1
f 653/17/1 654/18/1 655/19/1 656/20/1
f 657/17/1 658/18/1 659/19/1 660/20/1
f 661/17/1 662/18/1 663/19/1 664/20/1
f 665/17/1 666/18/1 667/19/1 668/20/1
f 669/17/1 670/18/1 671/19/1 672/20/1
f 673/17/1 674/18/1 675/19/1 676/20/1
f 677/17/1 678/18/1 679/19/1 680/20/1
f 681/17/1 682/18/1 683/19/1 684/20/1
f 685/17/1 686/18/1 687/19/1 688/20/1
f 689/17/1 690/18/1 691/19/1 692/20/1
f 693/45/1 694/46/1 695/47/1 696/48/1
f 697/49/1 698/50/1 699/51/1 700/52/1
f 701/21/1 702/22/1 703/23/1 704/24/1
f 705/21/1 706/22/1 707/23/1 708/24/1
f 709/21/1 710/22/1 711/23/1 712/24/1
f 713/21/1 714/22/1 715/23/1 716/24/1
f 717/21/1 718/22/1 719/23/1 720/24/1
f 721/21/1 722/22/1 723/23/1 724/24/1
f 725/21/1 726/22/1 727/23/1 728/24/1
f 729/21/1 730/22/1 731/23/1 732/24/1
f 733/21/1 734/22/1 735/23/1 736/24/1
f 737/21/1 738/22/1 739/23/1 740/24/1
f 741/21/1 742/22/1 743/23/1 744/24/1
f 745/53/1 746/54/1 747/55/1 748/56/1

