# Tiled2Unity generated file. Do not modify by hand.
# Wavefront file for 'map_mesh_0004.obj'

# Vertices (Count = 36)
v -800 -1264 0
v -816 -1264 0
v -816 -1248 0
v -800 -1248 0
v -784 -1264 0
v -800 -1264 0
v -800 -1248 0
v -784 -1248 0
v -768 -1264 0
v -784 -1264 0
v -784 -1248 0
v -768 -1248 0
v -800 -1280 0
v -816 -1280 0
v -816 -1264 0
v -800 -1264 0
v -784 -1280 0
v -800 -1280 0
v -800 -1264 0
v -784 -1264 0
v -768 -1280 0
v -784 -1280 0
v -784 -1264 0
v -768 -1264 0
v -800 -1296 0
v -816 -1296 0
v -816 -1280 0
v -800 -1280 0
v -784 -1296 0
v -800 -1296 0
v -800 -1280 0
v -784 -1280 0
v -768 -1296 0
v -784 -1296 0
v -784 -1280 0
v -768 -1280 0

# Texture cooridinates (Count = 36)
vt 0.5444215 0.5494297
vt 0.5609504 0.5494297
vt 0.5609504 0.5798479
vt 0.5444215 0.5798479
vt 0.4917355 0.5817491
vt 0.5082645 0.5817491
vt 0.5082645 0.6121673
vt 0.4917355 0.6121673
vt 0.5268595 0.5494297
vt 0.5433884 0.5494297
vt 0.5433884 0.5798479
vt 0.5268595 0.5798479
vt 0.5795454 0.4847909
vt 0.5960744 0.4847909
vt 0.5960744 0.5152091
vt 0.5795454 0.5152091
vt 0.5619835 0.4847909
vt 0.5785124 0.4847909
vt 0.5785124 0.5152091
vt 0.5619835 0.5152091
vt 0.5444215 0.4847909
vt 0.5609504 0.4847909
vt 0.5609504 0.5152091
vt 0.5444215 0.5152091
vt 0.5268595 0.4847909
vt 0.5433884 0.4847909
vt 0.5433884 0.5152091
vt 0.5268595 0.5152091
vt 0.4741735 0.4847909
vt 0.4907025 0.4847909
vt 0.4907025 0.5152091
vt 0.4741735 0.5152091
vt 0.4917355 0.4847909
vt 0.5082645 0.4847909
vt 0.5082645 0.5152091
vt 0.4917355 0.5152091

# Normal
vn 0 0 -1

# Mesh description
g map_mesh_0004

# Faces
f 1/1/1 2/2/1 3/3/1 4/4/1
f 5/5/1 6/6/1 7/7/1 8/8/1
f 9/9/1 10/10/1 11/11/1 12/12/1
f 13/13/1 14/14/1 15/15/1 16/16/1
f 17/17/1 18/18/1 19/19/1 20/20/1
f 21/21/1 22/22/1 23/23/1 24/24/1
f 25/25/1 26/26/1 27/27/1 28/28/1
f 29/29/1 30/30/1 31/31/1 32/32/1
f 33/33/1 34/34/1 35/35/1 36/36/1

